<svg version="1.1" id="Layer_1" xmlns="http://www.w3.org/2000/svg" xmlns:xlink="http://www.w3.org/1999/xlink" x="0px" y="0px"
	 width="100%" viewBox="0 0 1412 392" enable-background="new 0 0 1412 392" xml:space="preserve">
<path fill="#FFFFFF" opacity="1.000000" stroke="none" 
	d="
M1413.000000,65.000000 
	C1413.000000,174.318710 1413.000000,283.637421 1413.000000,392.978088 
	C942.410889,392.978088 471.821747,392.978088 1.116313,392.978088 
	C1.116313,262.428436 1.116313,131.856735 1.116313,1.000000 
	C344.359131,1.000000 687.718323,1.000000 1031.540405,1.468655 
	C1032.003296,63.853107 1032.003296,125.768906 1032.003296,187.623810 
	C1045.038940,187.623810 1057.425537,187.623810 1070.000000,187.623810 
	C1070.000000,174.927872 1069.966187,162.606781 1070.042236,150.286377 
	C1070.051880,148.725555 1070.093872,146.530396 1071.047974,145.717880 
	C1075.585327,141.853958 1080.443726,138.366791 1085.283936,134.672119 
	C1097.350098,151.606201 1109.054321,168.095612 1120.870361,184.504410 
	C1121.903564,185.939117 1123.653931,187.817551 1125.101562,187.844269 
	C1138.850708,188.098007 1152.606201,187.995544 1166.993896,187.995544 
	C1147.942017,162.326492 1129.317505,137.233398 1110.539185,111.932953 
	C1128.313843,92.445679 1145.793701,73.281685 1163.976562,53.346966 
	C1162.188721,53.143490 1161.602783,53.019234 1161.016602,53.018559 
	C1148.686035,53.004318 1136.353882,52.908375 1124.026733,53.112259 
	C1122.331543,53.140301 1120.261475,54.289383 1119.043091,55.566505 
	C1109.909546,65.140457 1100.835205,74.776718 1091.973511,84.601997 
	C1087.054077,90.056282 1082.581787,95.913483 1077.902466,101.584671 
	C1074.818848,105.322006 1071.725830,109.051544 1068.702026,112.705894 
	C1069.139648,98.131828 1069.813354,83.810547 1069.944214,69.484299 
	C1070.152832,46.657936 1070.000000,23.828270 1070.000000,1.000000 
	C1184.210571,1.000000 1298.421143,1.000000 1413.000000,1.000000 
	C1413.000000,17.690691 1413.000000,34.384090 1412.603027,51.389847 
	C1389.162842,47.617828 1371.890625,56.364876 1359.610840,76.282692 
	C1357.486572,67.990036 1355.570312,60.509220 1353.719971,53.285641 
	C1343.894775,53.285641 1334.631836,53.285641 1325.322510,53.285641 
	C1325.322510,98.280563 1325.322510,142.989853 1325.322510,187.626373 
	C1338.035034,187.626373 1350.421387,187.626373 1363.000000,187.626373 
	C1363.000000,163.606598 1362.684937,139.953476 1363.137085,116.315018 
	C1363.352905,105.029984 1368.430298,96.032661 1378.956421,90.473701 
	C1389.086670,85.123810 1399.696655,85.436226 1411.000000,86.799812 
	C1411.000000,84.897469 1410.839355,83.084602 1411.029907,81.309425 
	C1411.614136,75.865181 1412.333252,70.435402 1413.000000,65.000000 
M327.499756,12.000019 
	C311.085785,12.000019 294.671783,12.000019 278.348724,12.000019 
	C278.348724,71.037346 278.348724,129.394928 278.348724,188.000000 
	C296.499725,188.000000 314.304565,187.844940 332.105316,188.047272 
	C347.356781,188.220642 362.079285,185.813477 376.185699,180.010056 
	C396.334351,171.720840 410.520844,157.498596 418.026703,136.960587 
	C426.111420,114.838562 426.449768,92.093353 420.786224,69.602783 
	C414.875458,46.130447 400.158905,29.478342 377.632660,19.816570 
	C361.845215,13.045136 345.363037,11.543168 327.499756,12.000019 
M51.547489,157.000000 
	C48.783142,157.000000 46.018799,157.000000 43.382355,157.000000 
	C43.382355,141.610016 43.382355,126.891891 43.382355,111.839951 
	C63.029087,111.839951 82.295258,111.839951 101.698540,111.839951 
	C101.698540,101.443993 101.698540,91.392433 101.698540,80.824768 
	C82.015106,80.824768 62.627644,80.824768 43.396275,80.824768 
	C43.396275,67.915474 43.396275,55.529007 43.396275,42.812050 
	C64.723145,42.812050 85.655205,42.812050 106.683784,42.812050 
	C106.683784,32.415657 106.683784,22.363956 106.683784,12.354320 
	C72.656479,12.354320 38.946163,12.354320 5.380446,12.354320 
	C5.380446,71.078026 5.380446,129.446671 5.380446,187.757263 
	C39.353779,187.757263 72.946091,187.757263 106.706444,187.757263 
	C106.706444,177.461823 106.706444,167.410507 106.706444,157.000000 
	C88.456322,157.000000 70.496918,157.000000 51.547489,157.000000 
M215.481598,91.972008 
	C214.942230,91.627197 214.424408,91.241600 213.860321,90.943596 
	C201.886200,84.617790 189.658463,78.723541 178.002853,71.857841 
	C167.654449,65.762146 168.877121,49.731613 179.478455,44.155731 
	C187.764511,39.797600 196.422073,40.492943 204.879883,42.521801 
	C214.610382,44.855946 224.095718,48.212173 234.116501,51.254730 
	C238.043793,41.803978 242.194687,31.815081 246.367630,21.773188 
	C244.369629,20.990479 243.003815,20.483704 241.659760,19.924685 
	C218.856537,10.440410 195.503571,5.541000 170.963852,12.045492 
	C160.074173,14.931909 150.332123,19.788303 143.242310,29.148960 
	C136.050140,38.644726 133.867172,49.214748 133.842880,60.938953 
	C133.806320,78.587418 142.052505,91.486755 155.738052,101.089104 
	C163.969788,106.864822 173.360504,110.967125 182.091797,116.059082 
	C189.535400,120.400093 197.116318,124.625984 204.029999,129.725113 
	C212.805954,136.197739 210.746445,153.214417 197.390884,157.116211 
	C183.912857,161.053741 171.082520,158.347595 158.348129,154.575485 
	C149.532806,151.964279 141.022675,148.322723 132.002792,145.004196 
	C132.002792,156.382080 131.939789,167.368698 132.099762,178.352051 
	C132.115845,179.456589 133.235077,181.095596 134.258865,181.551712 
	C148.018814,187.682159 162.646713,190.313889 177.544632,190.834167 
	C185.372238,191.107498 193.273605,189.805313 201.116699,188.977905 
	C214.129181,187.605164 225.613846,182.067902 234.389053,172.802780 
	C246.930389,159.561264 249.459259,143.170639 245.244553,125.675972 
	C241.348495,109.504013 229.865021,99.940079 215.481598,91.972008 
M867.231018,187.979477 
	C867.820618,186.356766 868.919067,184.735779 868.924561,183.111084 
	C869.027283,152.779938 869.202148,122.446381 868.906189,92.117783 
	C868.777405,78.915062 863.128723,67.872238 852.278015,60.215271 
	C839.508667,51.204342 824.483887,50.141960 809.549561,50.194622 
	C802.088074,50.220936 794.471924,51.366062 787.215515,53.170433 
	C778.211121,55.409462 769.506897,58.855225 760.665405,61.782253 
	C764.851135,70.701660 768.354675,78.437378 772.199585,85.999504 
	C772.651794,86.888763 775.257324,87.533752 776.397644,87.090492 
	C787.389709,82.817841 798.356018,78.684723 810.432739,78.789185 
	C818.317810,78.857391 826.149902,79.658661 829.693359,87.790710 
	C831.753357,92.518326 831.796997,98.124550 832.767944,103.444534 
	C823.476074,104.013481 815.406921,104.319931 807.376343,105.050674 
	C798.902039,105.821793 790.287903,106.242310 782.051392,108.169106 
	C768.835876,111.260643 756.876587,116.911743 751.638367,130.890137 
	C747.516663,141.889206 747.875793,153.166748 751.040527,164.289169 
	C754.507935,176.475311 762.399048,184.582077 774.661499,188.302521 
	C783.107788,190.865112 791.521545,190.978760 800.370056,190.250061 
	C815.495911,189.004364 826.483215,181.616470 835.756531,170.288696 
	C838.070068,176.182281 840.366882,182.033020 842.708008,187.996765 
	C850.625000,187.996765 858.450195,187.996765 867.231018,187.979477 
M1295.999878,119.474686 
	C1295.665161,111.715210 1296.011475,103.853233 1294.861938,96.216385 
	C1291.966553,76.978638 1281.427856,62.852261 1263.450317,55.420975 
	C1248.657471,49.306156 1233.035034,49.482403 1217.452148,52.829174 
	C1199.570801,56.669575 1186.721191,66.951950 1179.250488,83.512947 
	C1170.337402,103.271393 1169.811157,123.998917 1174.510132,144.759811 
	C1178.001465,160.184906 1186.726196,172.457031 1200.395874,180.901291 
	C1211.707275,187.888748 1224.408813,189.993729 1237.296631,190.866409 
	C1243.674316,191.298279 1250.146606,190.332016 1256.576172,190.000244 
	C1266.973267,189.463760 1276.802979,186.686340 1286.182129,182.295532 
	C1287.326538,181.759735 1288.835205,180.359680 1288.859131,179.329544 
	C1289.069580,170.292572 1288.980713,161.248657 1288.980713,151.704132 
	C1271.752563,159.347809 1254.763794,163.662659 1236.593750,162.027100 
	C1221.963013,160.710129 1209.515259,147.589294 1210.529419,129.889679 
	C1238.891113,129.889679 1267.286987,129.889679 1296.000000,129.889679 
	C1296.000000,126.408142 1296.000000,123.435387 1295.999878,119.474686 
M592.000000,89.500000 
	C592.000000,74.415627 592.000000,59.331261 592.000000,43.737034 
	C608.406860,43.737034 624.128845,43.737034 639.735352,43.737034 
	C639.735352,32.946949 639.735352,22.678946 639.735352,12.297291 
	C595.097778,12.297291 550.725464,12.297291 506.368347,12.297291 
	C506.368347,22.979776 506.368347,33.361217 506.368347,44.102573 
	C522.336304,44.102573 537.934204,44.102573 554.027954,44.102573 
	C554.027954,92.175110 554.027954,139.881775 554.027954,187.684998 
	C566.917175,187.684998 579.301270,187.684998 592.000000,187.684998 
	C592.000000,155.080978 592.000000,122.790489 592.000000,89.500000 
M898.905823,134.759277 
	C899.606018,139.603851 899.900696,144.550598 901.090088,149.271927 
	C903.638184,159.385880 908.130981,168.747681 915.836121,175.863617 
	C928.438721,187.502502 944.187073,190.787689 960.767761,190.941986 
	C965.527832,190.986298 970.291931,190.288940 975.058655,190.009293 
	C984.032532,189.482849 992.315918,186.813980 999.861633,181.963989 
	C1000.802979,181.358978 1001.883545,180.058731 1001.898621,179.065414 
	C1002.049500,169.146530 1001.990234,159.224442 1001.990234,148.835312 
	C1000.362061,149.492126 999.241943,149.750763 998.335632,150.338898 
	C986.945923,157.730637 974.402710,160.996048 960.964417,159.888840 
	C952.665161,159.205017 945.949341,155.535492 941.814209,147.529968 
	C934.957642,134.255646 935.189270,120.359642 937.448181,106.283852 
	C938.129089,102.040787 939.552063,97.633118 941.749573,93.969231 
	C948.913696,82.024300 960.480042,78.724236 974.613037,82.413780 
	C981.623901,84.244026 988.460693,86.740768 995.646484,89.021751 
	C999.391724,79.280510 1003.081116,69.684631 1006.892761,59.770588 
	C1003.436279,58.424671 1000.291992,57.128429 997.098083,55.968777 
	C981.419739,50.276283 965.281311,49.718224 948.971252,52.023838 
	C932.589111,54.339649 918.994873,61.282658 909.661987,75.646530 
	C897.975830,93.632133 897.038391,113.525475 898.905823,134.759277 
M687.999939,136.500793 
	C688.334900,128.410080 688.141235,120.251930 689.162170,112.248703 
	C690.076904,105.077423 693.195984,98.678009 699.214661,93.903511 
	C710.043945,85.312920 722.347107,85.047981 735.821350,86.846924 
	C736.190002,85.031082 736.722717,83.051888 736.970947,81.037643 
	C737.371948,77.783966 737.629761,74.510445 737.868713,71.239502 
	C738.276733,65.652824 738.779236,60.064068 738.865479,54.470367 
	C738.882996,53.336422 737.241577,51.189144 736.348267,51.180241 
	C726.378479,51.080883 716.247314,49.749691 706.897583,54.986061 
	C697.988159,59.975830 690.609009,66.424431 685.336792,77.069283 
	C683.166626,68.161850 681.333069,60.636028 679.536560,53.262230 
	C669.939087,53.262230 660.678894,53.262230 651.271301,53.262230 
	C651.271301,98.214432 651.271301,142.904755 651.271301,187.685303 
	C663.591553,187.685303 675.638367,187.685303 688.000000,187.685303 
	C688.000000,170.748810 688.000000,154.124664 687.999939,136.500793 
M610.927185,354.876282 
	C610.042603,353.182159 609.533142,350.509186 608.195679,349.996552 
	C605.365723,348.911804 601.836182,348.000885 599.084839,348.771942 
	C595.478699,349.782501 594.229004,355.461914 595.367065,359.910706 
	C596.342041,363.721527 598.708191,365.055756 602.448669,365.038666 
	C608.228577,365.012299 610.190369,362.982635 610.927185,354.876282 
z"/>
<path fill="#86BC25" opacity="1.000000" stroke="none" 
	d="
M1069.531372,1.000000 
	C1070.000000,23.828270 1070.152832,46.657936 1069.944214,69.484299 
	C1069.813354,83.810547 1069.139648,98.131828 1068.702026,112.705894 
	C1071.725830,109.051544 1074.818848,105.322006 1077.902466,101.584671 
	C1082.581787,95.913483 1087.054077,90.056282 1091.973511,84.601997 
	C1100.835205,74.776718 1109.909546,65.140457 1119.043091,55.566505 
	C1120.261475,54.289383 1122.331543,53.140301 1124.026733,53.112259 
	C1136.353882,52.908375 1148.686035,53.004318 1161.016602,53.018559 
	C1161.602783,53.019234 1162.188721,53.143490 1163.976562,53.346966 
	C1145.793701,73.281685 1128.313843,92.445679 1110.539185,111.932953 
	C1129.317505,137.233398 1147.942017,162.326492 1166.993896,187.995544 
	C1152.606201,187.995544 1138.850708,188.098007 1125.101562,187.844269 
	C1123.653931,187.817551 1121.903564,185.939117 1120.870361,184.504410 
	C1109.054321,168.095612 1097.350098,151.606201 1085.283936,134.672119 
	C1080.443726,138.366791 1075.585327,141.853958 1071.047974,145.717880 
	C1070.093872,146.530396 1070.051880,148.725555 1070.042236,150.286377 
	C1069.966187,162.606781 1070.000000,174.927872 1070.000000,187.623810 
	C1057.425537,187.623810 1045.038940,187.623810 1032.003296,187.623810 
	C1032.003296,125.768906 1032.003296,63.853107 1032.001709,1.468655 
	C1044.354248,1.000000 1056.708496,1.000000 1069.531372,1.000000 
z"/>
<path fill="#86BC25" opacity="1.000000" stroke="none" 
	d="
M1413.000000,64.536819 
	C1412.333252,70.435402 1411.614136,75.865181 1411.029907,81.309425 
	C1410.839355,83.084602 1411.000000,84.897469 1411.000000,86.799812 
	C1399.696655,85.436226 1389.086670,85.123810 1378.956421,90.473701 
	C1368.430298,96.032661 1363.352905,105.029984 1363.137085,116.315018 
	C1362.684937,139.953476 1363.000000,163.606598 1363.000000,187.626373 
	C1350.421387,187.626373 1338.035034,187.626373 1325.322510,187.626373 
	C1325.322510,142.989853 1325.322510,98.280563 1325.322510,53.285641 
	C1334.631836,53.285641 1343.894775,53.285641 1353.719971,53.285641 
	C1355.570312,60.509220 1357.486572,67.990036 1359.610840,76.282692 
	C1371.890625,56.364876 1389.162842,47.617828 1412.603027,51.851101 
	C1413.000000,56.024544 1413.000000,60.049088 1413.000000,64.536819 
z"/>
<path fill="#86BC25" opacity="1.000000" stroke="none" 
	d="
M327.999634,12.000020 
	C345.363037,11.543168 361.845215,13.045136 377.632660,19.816570 
	C400.158905,29.478342 414.875458,46.130447 420.786224,69.602783 
	C426.449768,92.093353 426.111420,114.838562 418.026703,136.960587 
	C410.520844,157.498596 396.334351,171.720840 376.185699,180.010056 
	C362.079285,185.813477 347.356781,188.220642 332.105316,188.047272 
	C314.304565,187.844940 296.499725,188.000000 278.348724,188.000000 
	C278.348724,129.394928 278.348724,71.037346 278.348724,12.000019 
	C294.671783,12.000019 311.085785,12.000019 327.999634,12.000020 
M356.468903,46.886131 
	C343.345703,41.848587 329.741302,43.043114 316.260254,43.124115 
	C316.260254,81.374870 316.260254,118.974648 316.260254,157.772537 
	C326.732239,156.830078 336.989441,156.680191 346.937012,154.848526 
	C366.816467,151.188110 376.768188,140.367966 381.856476,122.023148 
	C384.743713,111.613701 385.422363,100.916664 384.209290,89.884720 
	C382.126373,70.942947 375.995911,55.194218 356.468903,46.886131 
z"/>
<path fill="#86BC25" opacity="1.000000" stroke="none" 
	d="
M52.042503,157.000000 
	C70.496918,157.000000 88.456322,157.000000 106.706444,157.000000 
	C106.706444,167.410507 106.706444,177.461823 106.706444,187.757263 
	C72.946091,187.757263 39.353779,187.757263 5.380446,187.757263 
	C5.380446,129.446671 5.380446,71.078026 5.380446,12.354320 
	C38.946163,12.354320 72.656479,12.354320 106.683784,12.354320 
	C106.683784,22.363956 106.683784,32.415657 106.683784,42.812050 
	C85.655205,42.812050 64.723145,42.812050 43.396275,42.812050 
	C43.396275,55.529007 43.396275,67.915474 43.396275,80.824768 
	C62.627644,80.824768 82.015106,80.824768 101.698540,80.824768 
	C101.698540,91.392433 101.698540,101.443993 101.698540,111.839951 
	C82.295258,111.839951 63.029087,111.839951 43.382355,111.839951 
	C43.382355,126.891891 43.382355,141.610016 43.382355,157.000000 
	C46.018799,157.000000 48.783142,157.000000 52.042503,157.000000 
z"/>
<path fill="#86BC25" opacity="1.000000" stroke="none" 
	d="
M215.750977,92.231537 
	C229.865021,99.940079 241.348495,109.504013 245.244553,125.675972 
	C249.459259,143.170639 246.930389,159.561264 234.389053,172.802780 
	C225.613846,182.067902 214.129181,187.605164 201.116699,188.977905 
	C193.273605,189.805313 185.372238,191.107498 177.544632,190.834167 
	C162.646713,190.313889 148.018814,187.682159 134.258865,181.551712 
	C133.235077,181.095596 132.115845,179.456589 132.099762,178.352051 
	C131.939789,167.368698 132.002792,156.382080 132.002792,145.004196 
	C141.022675,148.322723 149.532806,151.964279 158.348129,154.575485 
	C171.082520,158.347595 183.912857,161.053741 197.390884,157.116211 
	C210.746445,153.214417 212.805954,136.197739 204.029999,129.725113 
	C197.116318,124.625984 189.535400,120.400093 182.091797,116.059082 
	C173.360504,110.967125 163.969788,106.864822 155.738052,101.089104 
	C142.052505,91.486755 133.806320,78.587418 133.842880,60.938953 
	C133.867172,49.214748 136.050140,38.644726 143.242310,29.148960 
	C150.332123,19.788303 160.074173,14.931909 170.963852,12.045492 
	C195.503571,5.541000 218.856537,10.440410 241.659760,19.924685 
	C243.003815,20.483704 244.369629,20.990479 246.367630,21.773188 
	C242.194687,31.815081 238.043793,41.803978 234.116501,51.254730 
	C224.095718,48.212173 214.610382,44.855946 204.879883,42.521801 
	C196.422073,40.492943 187.764511,39.797600 179.478455,44.155731 
	C168.877121,49.731613 167.654449,65.762146 178.002853,71.857841 
	C189.658463,78.723541 201.886200,84.617790 213.860321,90.943596 
	C214.424408,91.241600 214.942230,91.627197 215.750977,92.231537 
z"/>
<path fill="#86BC25" opacity="1.000000" stroke="none" 
	d="
M866.753235,187.988129 
	C858.450195,187.996765 850.625000,187.996765 842.708008,187.996765 
	C840.366882,182.033020 838.070068,176.182281 835.756531,170.288696 
	C826.483215,181.616470 815.495911,189.004364 800.370056,190.250061 
	C791.521545,190.978760 783.107788,190.865112 774.661499,188.302521 
	C762.399048,184.582077 754.507935,176.475311 751.040527,164.289169 
	C747.875793,153.166748 747.516663,141.889206 751.638367,130.890137 
	C756.876587,116.911743 768.835876,111.260643 782.051392,108.169106 
	C790.287903,106.242310 798.902039,105.821793 807.376343,105.050674 
	C815.406921,104.319931 823.476074,104.013481 832.767944,103.444534 
	C831.796997,98.124550 831.753357,92.518326 829.693359,87.790710 
	C826.149902,79.658661 818.317810,78.857391 810.432739,78.789185 
	C798.356018,78.684723 787.389709,82.817841 776.397644,87.090492 
	C775.257324,87.533752 772.651794,86.888763 772.199585,85.999504 
	C768.354675,78.437378 764.851135,70.701660 760.665405,61.782253 
	C769.506897,58.855225 778.211121,55.409462 787.215515,53.170433 
	C794.471924,51.366062 802.088074,50.220936 809.549561,50.194622 
	C824.483887,50.141960 839.508667,51.204342 852.278015,60.215271 
	C863.128723,67.872238 868.777405,78.915062 868.906189,92.117783 
	C869.202148,122.446381 869.027283,152.779938 868.924561,183.111084 
	C868.919067,184.735779 867.820618,186.356766 866.753235,187.988129 
M788.003601,153.196945 
	C789.041199,155.000961 790.011963,156.847534 791.129028,158.600906 
	C794.336670,163.635941 808.667725,164.371429 816.103821,160.991241 
	C830.331726,154.523743 834.067688,141.311890 831.189209,125.788658 
	C826.658691,126.190491 822.071472,126.421829 817.537537,127.042534 
	C811.438782,127.877464 805.219299,128.451752 799.342773,130.147171 
	C789.914612,132.867310 785.044312,144.467758 788.003601,153.196945 
z"/>
<path fill="#86BC25" opacity="1.000000" stroke="none" 
	d="
M1296.000000,119.968658 
	C1296.000000,123.435387 1296.000000,126.408142 1296.000000,129.889679 
	C1267.286987,129.889679 1238.891113,129.889679 1210.529419,129.889679 
	C1209.515259,147.589294 1221.963013,160.710129 1236.593750,162.027100 
	C1254.763794,163.662659 1271.752563,159.347809 1288.980713,151.704132 
	C1288.980713,161.248657 1289.069580,170.292572 1288.859131,179.329544 
	C1288.835205,180.359680 1287.326538,181.759735 1286.182129,182.295532 
	C1276.802979,186.686340 1266.973267,189.463760 1256.576172,190.000244 
	C1250.146606,190.332016 1243.674316,191.298279 1237.296631,190.866409 
	C1224.408813,189.993729 1211.707275,187.888748 1200.395874,180.901291 
	C1186.726196,172.457031 1178.001465,160.184906 1174.510132,144.759811 
	C1169.811157,123.998917 1170.337402,103.271393 1179.250488,83.512947 
	C1186.721191,66.951950 1199.570801,56.669575 1217.452148,52.829174 
	C1233.035034,49.482403 1248.657471,49.306156 1263.450317,55.420975 
	C1281.427856,62.852261 1291.966553,76.978638 1294.861938,96.216385 
	C1296.011475,103.853233 1295.665161,111.715210 1296.000000,119.968658 
M1236.500000,105.000000 
	C1244.597046,105.000000 1252.694214,105.000000 1261.074341,105.000000 
	C1260.716919,94.459213 1257.394043,86.082642 1248.454346,80.968697 
	C1239.771973,76.001968 1230.465332,76.221497 1222.347656,81.533447 
	C1214.435669,86.710739 1211.524414,95.264870 1211.052856,105.000000 
	C1219.579834,105.000000 1227.539917,105.000000 1236.500000,105.000000 
z"/>
<path fill="#86BC25" opacity="1.000000" stroke="none" 
	d="
M592.000000,90.000000 
	C592.000000,122.790489 592.000000,155.080978 592.000000,187.684998 
	C579.301270,187.684998 566.917175,187.684998 554.027954,187.684998 
	C554.027954,139.881775 554.027954,92.175110 554.027954,44.102573 
	C537.934204,44.102573 522.336304,44.102573 506.368347,44.102573 
	C506.368347,33.361217 506.368347,22.979776 506.368347,12.297291 
	C550.725464,12.297291 595.097778,12.297291 639.735352,12.297291 
	C639.735352,22.678946 639.735352,32.946949 639.735352,43.737034 
	C624.128845,43.737034 608.406860,43.737034 592.000000,43.737034 
	C592.000000,59.331261 592.000000,74.415627 592.000000,90.000000 
z"/>
<path fill="#86BC25" opacity="1.000000" stroke="none" 
	d="
M898.683838,134.353149 
	C897.038391,113.525475 897.975830,93.632133 909.661987,75.646530 
	C918.994873,61.282658 932.589111,54.339649 948.971252,52.023838 
	C965.281311,49.718224 981.419739,50.276283 997.098083,55.968777 
	C1000.291992,57.128429 1003.436279,58.424671 1006.892761,59.770588 
	C1003.081116,69.684631 999.391724,79.280510 995.646484,89.021751 
	C988.460693,86.740768 981.623901,84.244026 974.613037,82.413780 
	C960.480042,78.724236 948.913696,82.024300 941.749573,93.969231 
	C939.552063,97.633118 938.129089,102.040787 937.448181,106.283852 
	C935.189270,120.359642 934.957642,134.255646 941.814209,147.529968 
	C945.949341,155.535492 952.665161,159.205017 960.964417,159.888840 
	C974.402710,160.996048 986.945923,157.730637 998.335632,150.338898 
	C999.241943,149.750763 1000.362061,149.492126 1001.990234,148.835312 
	C1001.990234,159.224442 1002.049500,169.146530 1001.898621,179.065414 
	C1001.883545,180.058731 1000.802979,181.358978 999.861633,181.963989 
	C992.315918,186.813980 984.032532,189.482849 975.058655,190.009293 
	C970.291931,190.288940 965.527832,190.986298 960.767761,190.941986 
	C944.187073,190.787689 928.438721,187.502502 915.836121,175.863617 
	C908.130981,168.747681 903.638184,159.385880 901.090088,149.271927 
	C899.900696,144.550598 899.606018,139.603851 898.683838,134.353149 
z"/>
<path fill="#86BC25" opacity="1.000000" stroke="none" 
	d="
M688.000000,137.000656 
	C688.000000,154.124664 688.000000,170.748810 688.000000,187.685303 
	C675.638367,187.685303 663.591553,187.685303 651.271301,187.685303 
	C651.271301,142.904755 651.271301,98.214432 651.271301,53.262230 
	C660.678894,53.262230 669.939087,53.262230 679.536560,53.262230 
	C681.333069,60.636028 683.166626,68.161850 685.336792,77.069283 
	C690.609009,66.424431 697.988159,59.975830 706.897583,54.986061 
	C716.247314,49.749691 726.378479,51.080883 736.348267,51.180241 
	C737.241577,51.189144 738.882996,53.336422 738.865479,54.470367 
	C738.779236,60.064068 738.276733,65.652824 737.868713,71.239502 
	C737.629761,74.510445 737.371948,77.783966 736.970947,81.037643 
	C736.722717,83.051888 736.190002,85.031082 735.821350,86.846924 
	C722.347107,85.047981 710.043945,85.312920 699.214661,93.903511 
	C693.195984,98.678009 690.076904,105.077423 689.162170,112.248703 
	C688.141235,120.251930 688.334900,128.410080 688.000000,137.000656 
z"/>
<path fill="#86BC25" opacity="1.000000" stroke="none" 
	d="
M610.957947,355.283691 
	C610.190369,362.982635 608.228577,365.012299 602.448669,365.038666 
	C598.708191,365.055756 596.342041,363.721527 595.367065,359.910706 
	C594.229004,355.461914 595.478699,349.782501 599.084839,348.771942 
	C601.836182,348.000885 605.365723,348.911804 608.195679,349.996552 
	C609.533142,350.509186 610.042603,353.182159 610.957947,355.283691 
z"/>
<path fill="#FFFFFF" opacity="1.000000" stroke="none" 
	d="
M356.855133,46.967117 
	C375.995911,55.194218 382.126373,70.942947 384.209290,89.884720 
	C385.422363,100.916664 384.743713,111.613701 381.856476,122.023148 
	C376.768188,140.367966 366.816467,151.188110 346.937012,154.848526 
	C336.989441,156.680191 326.732239,156.830078 316.260254,157.772537 
	C316.260254,118.974648 316.260254,81.374870 316.260254,43.124115 
	C329.741302,43.043114 343.345703,41.848587 356.855133,46.967117 
z"/>
<path fill="#FFFFFF" opacity="1.000000" stroke="none" 
	d="
M787.992554,152.784332 
	C785.044312,144.467758 789.914612,132.867310 799.342773,130.147171 
	C805.219299,128.451752 811.438782,127.877464 817.537537,127.042534 
	C822.071472,126.421829 826.658691,126.190491 831.189209,125.788658 
	C834.067688,141.311890 830.331726,154.523743 816.103821,160.991241 
	C808.667725,164.371429 794.336670,163.635941 791.129028,158.600906 
	C790.011963,156.847534 789.041199,155.000961 787.992554,152.784332 
z"/>
<path fill="#FFFFFF" opacity="1.000000" stroke="none" 
	d="
M1236.000000,105.000000 
	C1227.539917,105.000000 1219.579834,105.000000 1211.052856,105.000000 
	C1211.524414,95.264870 1214.435669,86.710739 1222.347656,81.533447 
	C1230.465332,76.221497 1239.771973,76.001968 1248.454346,80.968697 
	C1257.394043,86.082642 1260.716919,94.459213 1261.074341,105.000000 
	C1252.694214,105.000000 1244.597046,105.000000 1236.000000,105.000000 
z"/>
</svg>